<svg width="384" height="80" viewBox="0 0 384 80" fill="none" xmlns="http://www.w3.org/2000/svg">
	<path d="M2,49.8V24.3h9.5c2,0,3.6,0.4,4.9,1.1c1.3,0.7,2.3,1.7,3,3c0.7,1.3,1,2.7,1,4.3c0,1.6-0.3,3.1-1,4.4
		c-0.7,1.3-1.7,2.3-3,3s-3,1.1-5,1.1H6.6v8.6H2z M6.6,37.4h4.3c1.7,0,3-0.4,3.8-1.3s1.2-2,1.2-3.3c0-1.4-0.4-2.5-1.2-3.3
		s-2.1-1.3-3.8-1.3H6.6V37.4z" fill="#262626" />
	<path d="M29.5,50.1c-1.8,0-3.3-0.5-4.6-1.5c-1.2-1-1.8-2.4-1.8-4.3c0-1.4,0.3-2.5,1-3.3c0.7-0.8,1.6-1.4,2.7-1.7
		c1.1-0.4,2.3-0.6,3.5-0.7c1.7-0.2,2.9-0.4,3.6-0.5c0.7-0.2,1.1-0.6,1.1-1.2v-0.1c0-0.9-0.3-1.7-0.8-2.2s-1.4-0.8-2.4-0.8
		c-1.1,0-2,0.2-2.6,0.7s-1.1,1-1.3,1.7l-4.2-0.6c0.5-1.7,1.5-3.1,2.9-3.9c1.4-0.9,3.2-1.3,5.2-1.3c0.9,0,1.8,0.1,2.7,0.3
		c0.9,0.2,1.7,0.6,2.5,1.1c0.8,0.5,1.4,1.2,1.8,2c0.5,0.8,0.7,1.9,0.7,3.2v12.8h-4.3v-2.6h-0.1c-0.4,0.8-1.1,1.5-2,2.1
		C32.2,49.8,31,50.1,29.5,50.1z M30.7,46.8c1.4,0,2.4-0.4,3.2-1.2c0.8-0.8,1.2-1.7,1.2-2.8v-2.3c-0.2,0.2-0.5,0.3-1.1,0.4
		s-1.1,0.2-1.6,0.3c-0.6,0.1-1.1,0.2-1.5,0.2c-1,0.1-1.8,0.4-2.5,0.8c-0.7,0.4-1,1-1,1.9c0,0.8,0.3,1.5,0.9,1.9
		C29,46.6,29.7,46.8,30.7,46.8z" fill="#262626" />
	<path d="M48.6,38.6v11.2h-4.5V30.7h4.3v3.2h0.2c0.4-1.1,1.1-1.9,2.1-2.5c1-0.6,2.2-1,3.6-1c2,0,3.6,0.6,4.8,1.9
		c1.2,1.3,1.8,3,1.8,5.3v12.2h-4.5V38.3c0-1.3-0.3-2.3-1-3c-0.7-0.7-1.6-1.1-2.7-1.1c-1.2,0-2.2,0.4-2.9,1.1S48.6,37.2,48.6,38.6z"
		 fill="#262626" />
	<path d="M72.5,50.1c-1.5,0-2.8-0.4-4-1.2s-2.1-1.9-2.8-3.4c-0.7-1.5-1-3.2-1-5.3c0-2.1,0.4-3.9,1.1-5.4
		c0.7-1.5,1.6-2.6,2.8-3.3c1.2-0.8,2.5-1.1,4-1.1c1.1,0,2,0.2,2.8,0.6c0.7,0.4,1.3,0.8,1.7,1.4c0.4,0.5,0.8,1,1,1.5h0.2v-9.5h4.5
		v25.5h-4.4v-3H78c-0.2,0.5-0.6,1-1,1.5c-0.4,0.5-1,1-1.7,1.3C74.5,49.9,73.6,50.1,72.5,50.1z M73.8,46.4c1.4,0,2.5-0.6,3.3-1.7
		c0.8-1.1,1.2-2.6,1.2-4.5c0-1.9-0.4-3.3-1.2-4.4c-0.8-1.1-1.9-1.7-3.3-1.7c-1.5,0-2.6,0.6-3.4,1.7c-0.8,1.1-1.1,2.6-1.1,4.4
		c0,1.8,0.4,3.3,1.2,4.4S72.3,46.4,73.8,46.4z" fill="#262626" />
	<path d="M99.7,41.7V30.7h4.5v19.1h-4.4v-3.4h-0.2c-0.4,1.1-1.1,1.9-2.1,2.6s-2.2,1-3.6,1c-1.9,0-3.4-0.6-4.6-1.9
		c-1.2-1.2-1.8-3-1.8-5.3V30.7H92v11.5c0,1.2,0.3,2.2,1,2.9c0.7,0.7,1.5,1.1,2.6,1.1c0.7,0,1.3-0.2,1.9-0.5c0.6-0.3,1.1-0.8,1.5-1.4
		S99.7,42.7,99.7,41.7z" fill="#262626" />
	<path d="M114.3,50.1c-1.8,0-3.3-0.5-4.6-1.5c-1.2-1-1.8-2.4-1.8-4.3c0-1.4,0.3-2.5,1-3.3c0.7-0.8,1.6-1.4,2.7-1.7
		c1.1-0.4,2.3-0.6,3.5-0.7c1.7-0.2,2.9-0.4,3.6-0.5c0.7-0.2,1.1-0.6,1.1-1.2v-0.1c0-0.9-0.3-1.7-0.8-2.2s-1.4-0.8-2.4-0.8
		c-1.1,0-2,0.2-2.6,0.7s-1.1,1-1.3,1.7l-4.2-0.6c0.5-1.7,1.5-3.1,2.9-3.9c1.4-0.9,3.2-1.3,5.2-1.3c0.9,0,1.8,0.1,2.7,0.3
		c0.9,0.2,1.7,0.6,2.5,1.1c0.8,0.5,1.4,1.2,1.8,2c0.5,0.8,0.7,1.9,0.7,3.2v12.8H120v-2.6h-0.1c-0.4,0.8-1.1,1.5-2,2.1
		C117,49.8,115.8,50.1,114.3,50.1z M115.5,46.8c1.4,0,2.4-0.4,3.2-1.2c0.8-0.8,1.2-1.7,1.2-2.8v-2.3c-0.2,0.2-0.5,0.3-1.1,0.4
		s-1.1,0.2-1.6,0.3c-0.6,0.1-1.1,0.2-1.5,0.2c-1,0.1-1.8,0.4-2.5,0.8c-0.7,0.4-1,1-1,1.9c0,0.8,0.3,1.5,0.9,1.9
		C113.8,46.6,114.5,46.8,115.5,46.8z" fill="#262626" />
	<path d="M133.4,38.6v11.2h-4.5V30.7h4.3v3.2h0.2c0.4-1.1,1.1-1.9,2.1-2.5c1-0.6,2.2-1,3.6-1c2,0,3.6,0.6,4.8,1.9
		c1.2,1.3,1.8,3,1.8,5.3v12.2h-4.5V38.3c0-1.3-0.3-2.3-1-3c-0.7-0.7-1.6-1.1-2.7-1.1c-1.2,0-2.2,0.4-2.9,1.1S133.4,37.2,133.4,38.6z
		" fill="#262626" />
	<path d="M155.1,24.3v25.5h-4.6V24.3H155.1z" fill="#262626" />
	<path d="M164.4,38.6v11.2h-4.5V30.7h4.3v3.2h0.2c0.4-1.1,1.1-1.9,2.1-2.5c1-0.6,2.2-1,3.6-1c2,0,3.6,0.6,4.8,1.9
		c1.2,1.3,1.8,3,1.8,5.3v12.2h-4.5V38.3c0-1.3-0.3-2.3-1-3c-0.7-0.7-1.6-1.1-2.7-1.1c-1.2,0-2.2,0.4-2.9,1.1S164.4,37.2,164.4,38.6z
		" fill="#262626" />
	<path d="M197.6,30.7l-6.8,19.1h-5L179,30.7h4.8l4.4,14.2h0.2l4.4-14.2H197.6z" fill="#262626" />
	<path d="M208.5,50.1c-1.9,0-3.6-0.4-5-1.2c-1.4-0.8-2.5-1.9-3.2-3.4c-0.7-1.5-1.1-3.2-1.1-5.2c0-2,0.4-3.7,1.1-5.2
		c0.7-1.5,1.8-2.6,3.2-3.5c1.4-0.8,2.9-1.2,4.8-1.2c1.6,0,3,0.3,4.3,1c1.3,0.7,2.4,1.7,3.2,3.1c0.8,1.4,1.2,3.3,1.2,5.5v1.4h-13.3
		c0,1.6,0.5,2.9,1.4,3.8c0.9,0.9,2.1,1.4,3.5,1.4c1,0,1.8-0.2,2.5-0.6c0.7-0.4,1.2-1,1.5-1.8l4.2,0.5c-0.4,1.7-1.3,3-2.8,4
		S210.7,50.1,208.5,50.1z M203.7,38.4h9c0-1.3-0.4-2.4-1.2-3.2s-1.8-1.3-3.1-1.3c-1.3,0-2.4,0.4-3.3,1.3S203.7,37.2,203.7,38.4z" fill="#262626" />
	<path d="M235.8,35.7l-4.1,0.4c-0.2-0.6-0.5-1.2-1.1-1.7s-1.4-0.7-2.4-0.7c-0.9,0-1.7,0.2-2.4,0.6
		c-0.6,0.4-0.9,0.9-0.9,1.6c0,0.6,0.2,1,0.6,1.4c0.4,0.4,1.1,0.6,2.1,0.9l3.3,0.7c3.6,0.8,5.4,2.5,5.4,5.2c0,1.2-0.3,2.3-1,3.2
		c-0.7,0.9-1.7,1.6-2.9,2.1c-1.2,0.5-2.6,0.8-4.2,0.8c-2.3,0-4.2-0.5-5.6-1.5c-1.4-1-2.3-2.4-2.5-4.1l4.4-0.4
		c0.4,1.7,1.7,2.6,3.8,2.6c1.1,0,1.9-0.2,2.6-0.7s1-1,1-1.6c0-1.1-0.9-1.8-2.6-2.2l-3.3-0.7c-1.8-0.4-3.2-1-4.1-1.9
		c-0.9-0.9-1.3-2.1-1.3-3.4c0-1.2,0.3-2.2,1-3.1s1.5-1.5,2.7-2c1.2-0.5,2.5-0.7,4-0.7c2.2,0,4,0.5,5.3,1.4S235.5,34.1,235.8,35.7z"
		 fill="#262626" />
	<path d="M249.5,30.7v3.5h-3.8V44c0,0.9,0.2,1.5,0.6,1.8c0.4,0.3,0.9,0.4,1.4,0.4c0.3,0,0.5,0,0.8-0.1
		c0.2,0,0.4-0.1,0.5-0.1l0.8,3.5c-0.2,0.1-0.6,0.2-1,0.3c-0.4,0.1-1,0.2-1.6,0.2c-1.7,0-3.1-0.4-4.3-1.2c-1.1-0.9-1.7-2.2-1.7-4
		V34.1h-2.7v-3.5h2.7v-4.6h4.5v4.6H249.5z" fill="#262626" />
	<path d="M258.8,50.1c-1.8,0-3.3-0.5-4.6-1.5c-1.2-1-1.8-2.4-1.8-4.3c0-1.4,0.3-2.5,1-3.3c0.7-0.8,1.6-1.4,2.7-1.7
		c1.1-0.4,2.3-0.6,3.5-0.7c1.7-0.2,2.9-0.4,3.6-0.5c0.7-0.2,1.1-0.6,1.1-1.2v-0.1c0-0.9-0.3-1.7-0.8-2.2c-0.6-0.5-1.4-0.8-2.4-0.8
		c-1.1,0-2,0.2-2.6,0.7s-1.1,1-1.3,1.7l-4.2-0.6c0.5-1.7,1.5-3.1,2.9-3.9c1.4-0.9,3.2-1.3,5.2-1.3c0.9,0,1.8,0.1,2.7,0.3
		c0.9,0.2,1.7,0.6,2.5,1.1c0.8,0.5,1.4,1.2,1.8,2s0.7,1.9,0.7,3.2v12.8h-4.3v-2.6h-0.1c-0.4,0.8-1.1,1.5-2,2.1
		C261.5,49.8,260.3,50.1,258.8,50.1z M259.9,46.8c1.4,0,2.4-0.4,3.2-1.2c0.8-0.8,1.2-1.7,1.2-2.8v-2.3c-0.2,0.2-0.5,0.3-1,0.4
		c-0.5,0.1-1.1,0.2-1.6,0.3c-0.6,0.1-1.1,0.2-1.5,0.2c-1,0.1-1.8,0.4-2.5,0.8c-0.7,0.4-1,1-1,1.9c0,0.8,0.3,1.5,0.9,1.9
		C258.2,46.6,259,46.8,259.9,46.8z" fill="#262626" />
	<path d="M288.5,35.7l-4.1,0.4c-0.2-0.6-0.5-1.2-1.1-1.7s-1.4-0.7-2.4-0.7c-0.9,0-1.7,0.2-2.4,0.6
		c-0.6,0.4-0.9,0.9-0.9,1.6c0,0.6,0.2,1,0.6,1.4c0.4,0.4,1.1,0.6,2.1,0.9l3.3,0.7c3.6,0.8,5.4,2.5,5.4,5.2c0,1.2-0.3,2.3-1,3.2
		c-0.7,0.9-1.7,1.6-2.9,2.1c-1.2,0.5-2.6,0.8-4.2,0.8c-2.3,0-4.2-0.5-5.6-1.5c-1.4-1-2.3-2.4-2.5-4.1l4.4-0.4
		c0.4,1.7,1.7,2.6,3.8,2.6c1.1,0,1.9-0.2,2.6-0.7s1-1,1-1.6c0-1.1-0.9-1.8-2.6-2.2l-3.3-0.7c-1.8-0.4-3.2-1-4.1-1.9
		c-0.9-0.9-1.3-2.1-1.3-3.4c0-1.2,0.3-2.2,1-3.1s1.5-1.5,2.7-2c1.2-0.5,2.5-0.7,4-0.7c2.2,0,4,0.5,5.3,1.4S288.2,34.1,288.5,35.7z"
		 fill="#262626" />
	<path d="M294.9,27.9c-0.7,0-1.3-0.2-1.8-0.7c-0.5-0.5-0.8-1.1-0.8-1.7c0-0.7,0.3-1.3,0.8-1.7c0.5-0.5,1.1-0.7,1.8-0.7
		c0.7,0,1.3,0.2,1.8,0.7s0.8,1.1,0.8,1.7c0,0.7-0.3,1.2-0.8,1.7S295.6,27.9,294.9,27.9z M292.6,49.8V30.7h4.5v19.1H292.6z" fill="#262626" />
	<path d="M304.5,50c-0.8,0-1.4-0.3-1.9-0.8c-0.5-0.5-0.8-1.2-0.8-1.9c0-0.7,0.3-1.4,0.8-1.9c0.5-0.5,1.2-0.8,1.9-0.8
		c0.7,0,1.4,0.3,1.9,0.8c0.5,0.5,0.8,1.2,0.8,1.9c0,0.8-0.3,1.4-0.8,1.9C305.9,49.8,305.2,50,304.5,50z" fill="#0284C7" />
	<path d="M320.2,50.1c-1.9,0-3.5-0.4-4.9-1.3c-1.4-0.8-2.4-2-3.2-3.5c-0.7-1.5-1.1-3.2-1.1-5.1c0-1.9,0.4-3.7,1.1-5.1
		c0.7-1.5,1.8-2.6,3.2-3.5c1.4-0.8,3-1.3,4.8-1.3c1.6,0,2.9,0.3,4.1,0.9c1.2,0.6,2.1,1.4,2.9,2.4c0.7,1,1.1,2.2,1.2,3.6h-4.3
		c-0.2-0.9-0.6-1.7-1.2-2.3s-1.5-0.9-2.6-0.9c-1.4,0-2.5,0.5-3.3,1.6c-0.8,1.1-1.3,2.6-1.3,4.5c0,1.9,0.4,3.5,1.3,4.6s2,1.7,3.4,1.7
		c1,0,1.8-0.3,2.5-0.8c0.7-0.6,1.1-1.4,1.3-2.4h4.3c-0.1,1.4-0.5,2.5-1.2,3.6c-0.7,1-1.6,1.8-2.8,2.4
		C323.2,49.8,321.8,50.1,320.2,50.1z" fill="#0284C7" />
	<path d="M340.4,50.1c-1.9,0-3.5-0.4-4.8-1.2s-2.4-2-3.2-3.4s-1.1-3.2-1.1-5.2c0-2,0.4-3.7,1.1-5.2s1.8-2.6,3.2-3.5
		c1.4-0.8,3-1.2,4.8-1.2c1.9,0,3.5,0.4,4.9,1.2c1.4,0.8,2.4,2,3.2,3.5c0.7,1.5,1.1,3.2,1.1,5.2c0,2-0.4,3.7-1.1,5.2
		c-0.7,1.5-1.8,2.6-3.2,3.4C343.9,49.7,342.3,50.1,340.4,50.1z M340.4,46.5c1,0,1.9-0.3,2.5-0.8c0.7-0.6,1.2-1.3,1.5-2.3
		c0.3-0.9,0.5-2,0.5-3.2c0-1.2-0.2-2.2-0.5-3.2c-0.3-0.9-0.8-1.7-1.5-2.3c-0.7-0.6-1.5-0.8-2.5-0.8c-1,0-1.9,0.3-2.6,0.8
		s-1.2,1.3-1.5,2.3s-0.5,2-0.5,3.2c0,1.2,0.2,2.2,0.5,3.2s0.9,1.7,1.5,2.3S339.4,46.5,340.4,46.5z" fill="#0284C7" />
	<path d="M353.4,49.8V30.7h4.3v3.2h0.2c0.4-1.1,1.1-1.9,2-2.6c0.9-0.6,2-0.9,3.3-0.9c1.3,0,2.4,0.3,3.3,0.9
		c0.9,0.6,1.5,1.5,1.9,2.6h0.2c0.4-1.1,1.1-1.9,2.1-2.5s2.2-1,3.6-1c1.8,0,3.2,0.6,4.3,1.7s1.7,2.7,1.7,4.9v12.8h-4.5V37.6
		c0-1.2-0.3-2.1-0.9-2.6c-0.6-0.6-1.4-0.8-2.3-0.8c-1.1,0-1.9,0.3-2.5,1s-0.9,1.6-0.9,2.6v11.9h-4.4V37.4c0-1-0.3-1.8-0.9-2.4
		c-0.6-0.6-1.4-0.9-2.3-0.9c-1,0-1.8,0.4-2.5,1.1s-1,1.7-1,2.9v11.6H353.4z" fill="#0284C7" />
</svg>